<svg width="16" height="16" viewBox="0 0 16 16" fill="none" xmlns="http://www.w3.org/2000/svg">
<rect width="16" height="16" fill="#FF3C01"/>
<path d="M2.744 9V2.952H3.908V4.02C4.232 3.264 4.952 2.856 5.852 2.856C7.22 2.856 8.108 3.84 8.108 5.28V9H6.944V5.508C6.944 4.548 6.38 3.9 5.528 3.9C4.58 3.9 3.908 4.668 3.908 5.724V9H2.744Z" fill="#F4F0E6"/>
<path d="M11.6 2.868C12.992 2.868 13.94 4.116 13.94 5.868C13.94 7.764 12.776 9.144 11.204 9.144C10.712 9.144 10.22 9 9.74 8.724V11.004L10.136 11.16L11.132 11.208V11.4H8.168V11.208L8.768 11.16L8.996 11.004V3.504L8.144 3.384V3.204L9.584 2.976H9.74L9.716 4.008H9.776L9.848 3.912C10.268 3.252 10.832 2.868 11.6 2.868ZM9.74 8.088L10.016 8.328C10.4 8.676 10.796 8.868 11.252 8.868C12.356 8.868 13.148 7.74 13.148 6.132C13.148 4.488 12.392 3.324 11.264 3.324C10.628 3.324 10.196 3.696 9.836 4.164L9.74 4.284V8.088Z" fill="#F4F0E6"/>
<path d="M12.964 11.384C12.256 13.304 10.012 14.708 7.6 14.708C5.176 14.708 2.944 13.304 2.236 11.384L2.428 11.384C3.232 12.932 5.332 14 7.6 14C9.88 14 11.968 12.932 12.772 11.384L12.964 11.384Z" fill="#F4F0E6"/>
</svg>
